<svg id="Capa_1" enable-background="new 0 0 512 512" height="512" viewBox="0 0 512 512" width="512" xmlns="http://www.w3.org/2000/svg"><g><g><g><path d="m306.672 86.489h-36.745v-34.497h36.745c5.862 0 10.614 4.752 10.614 10.614v13.268c0 5.862-4.752 10.615-10.614 10.615z" fill="#efeff1"/><g><g><g><g><g><g><g><path d="m185.523 332.019c24.266 0 62.879-64.761 55.384-66.203l-5.479-2.896c-7.123-3.765-11.579-11.161-11.579-19.217v-52.797h-76.653v52.798c0 8.057-4.456 15.452-11.578 19.217l-5.479 2.896c-7.495 1.441 31.118 66.202 55.384 66.202z" fill="#f9eae2"/><g><g><g><path d="m282.906 122.57c-.032-7.656-6.189-13.836-13.753-13.804l-5.159.022-.087-20.791c-.181-43.56-36.127-59.572-75.981-59.852-39.68.618-75.544 16.773-75.362 60.498l.061 14.658.026 6.132-4.889.002c-10.879.005-19.694 8.831-19.686 19.71l.013 17.861c.008 10.876 8.829 19.687 19.705 19.682l5.057-.002c.511 20.117 8.944 39.446 24.088 52.533 12.192 10.536 29.307 19.705 51.866 19.863 22.557-.351 39.594-9.665 51.698-20.305 15.035-13.216 23.307-32.616 23.65-52.737l5.18-.022c7.564-.032 13.67-6.265 13.638-13.921z" fill="#f9eae2"/></g></g></g><path d="m221.506 7.5h-35.984-35.984c-34.098 0-61.74 27.642-61.74 61.74v40.801c0 5.993 3.793 11.33 9.453 13.301l15.208 5.295c5.316 1.851 10.867-2.101 10.858-7.73l-.033-28.771c-.058-13.992 11.1-25.383 24.923-25.443l.301-.002c4.231-.018 8.416.639 12.413 1.923 7.083 2.276 24.601 3.624 24.601 3.624s17.519-1.348 24.601-3.624c3.997-1.284 8.182-1.941 12.413-1.923l.301.002c13.823.06 24.982 11.451 24.923 25.443l-.033 28.771c-.009 5.629 5.542 9.581 10.858 7.73l15.208-5.295c5.66-1.971 9.453-7.307 9.453-13.301v-40.801c.001-34.098-27.641-61.74-61.74-61.74z" fill="#407093"/><path d="m282.906 122.57c-.032-7.656-6.189-13.836-13.753-13.804l-5.159.022-.086-20.791c-.15-35.815-24.484-52.997-55.283-58.133 5.254 8.271 8.306 18.543 8.358 31.127l.246 105.05c-.343 20.121-8.615 39.521-23.65 52.737-7.548 6.634-17.015 12.752-28.541 16.504 7.13 2.318 15.036 3.74 23.767 3.801 22.556-.351 39.594-9.665 51.698-20.305 15.035-13.216 23.307-32.616 23.65-52.737l5.18-.022c7.564-.032 13.67-6.265 13.638-13.921z" fill="#f5dbcc"/><path d="m221.506 7.5h-35.984-6.062c21.9 8.203 37.403 24.922 37.522 53.491l.014 6.073c1.83-.249 3.68-.379 5.54-.371l.301.002c13.823.06 24.982 11.451 24.923 25.443l-.033 28.771c-.009 5.629 5.542 9.581 10.858 7.73l15.208-5.295c5.66-1.971 9.453-7.307 9.453-13.3v-40.804c.001-34.098-27.641-61.74-61.74-61.74z" fill="#365e7d"/><path d="m235.427 262.92c-27.721 27.175-70.821 25.819-99.81 0-6.427-5.724-24.045 3.187-51.534 14.896-46.268 19.708-76.162 65.311-76.162 115.603v31.536c0 13.681 11.091 24.772 24.772 24.772h305.659c13.681 0 24.772-11.091 24.772-24.772v-31.536c0-50.292-29.894-95.895-76.163-115.604-27.488-11.709-51.534-14.895-51.534-14.895z" fill="#db636e"/><g><path d="m286.961 277.815c-27.489-11.709-51.534-14.896-51.534-14.896-5.754 5.64-12.232 10.092-19.122 13.391 1.206.487 2.417.985 3.639 1.505 46.269 19.709 76.163 65.312 76.163 115.604v31.536c0 13.681-11.091 24.772-24.772 24.772h67.017c13.681 0 24.772-11.091 24.772-24.772v-31.536c0-50.292-29.894-95.895-76.163-115.604z" fill="#d84a54"/></g></g></g></g></g></g><path d="m460.807 430.594h-45.541c-2.704 0-4.896-2.192-4.896-4.896v-32.548c0-2.704 2.192-4.896 4.896-4.896h45.541c4.384 0 7.939 3.554 7.939 7.939v26.462c-.001 4.384-3.555 7.939-7.939 7.939z" fill="#efeff1"/><path d="m413.723 504.5h-218.199c-12.143 0-21.987-9.844-21.987-21.987v-146.178c0-12.143 9.844-21.987 21.987-21.987h218.199c12.143 0 21.987 9.844 21.987 21.987v146.179c0 12.142-9.844 21.986-21.987 21.986z" fill="#eaf2ff"/><path d="m413.723 314.348h-65.016c12.143 0 21.987 9.844 21.987 21.987v146.179c0 12.143-9.844 21.987-21.987 21.987h65.016c12.143 0 21.987-9.844 21.987-21.987v-146.179c0-12.143-9.844-21.987-21.987-21.987z" fill="#dbe8f9"/><path d="m206.037 437.906v-83.779c0-4.02 3.259-7.278 7.278-7.278h182.615c4.02 0 7.278 3.259 7.278 7.278v83.779c0 4.02-3.259 7.278-7.278 7.278h-182.614c-4.02.001-7.279-3.258-7.279-7.278z" fill="#9bc4f9"/><path d="m395.93 346.849h-25.237v98.336h25.237c4.02 0 7.278-3.259 7.278-7.278v-83.779c.001-4.021-3.258-7.279-7.278-7.279z" fill="#7fb2f9"/></g></g></g></g><g><g><g><circle cx="368.308" cy="474.844" r="7.399"/><circle cx="395.711" cy="474.844" r="7.399"/></g></g><g><path d="m484.495 242.938h-41.716c-6.715 0-12.177-5.463-12.177-12.177v-141.84c0-14.988-12.193-27.18-27.181-27.18h-78.774c-.458-9.585-8.376-17.248-18.072-17.248h-20.514c-9.984-25.99-35.19-44.493-64.651-44.493h-71.967c-36.899 0-67.273 28.843-69.151 65.665-.211 4.138 2.972 7.663 7.11 7.874 4.17.215 7.664-2.973 7.874-7.11 1.47-28.837 25.263-51.425 54.167-51.425h71.967c29.907 0 54.238 24.331 54.238 54.238v40.801c0 2.798-1.775 5.296-4.417 6.216l-15.208 5.295c-.425.151-.89-.154-.89-.636l.033-28.748c.076-18.105-14.456-32.899-32.389-32.976l-.305-.001c-.068 0-.136 0-.203 0-4.932 0-9.822.768-14.538 2.284-4.406 1.416-15.757 2.712-22.306 3.241-6.544-.527-17.889-1.822-22.304-3.241-4.78-1.537-9.732-2.289-14.745-2.283l-.297.001c-17.937.077-32.469 14.87-32.393 32.953l.033 28.774c0 .095.001.346-.281.547-.28.201-.518.119-.609.087l-15.207-5.295c-2.643-.92-4.418-3.418-4.418-6.216v-8.913c0-4.143-3.358-7.502-7.502-7.502s-7.502 3.359-7.502 7.502v8.913c0 3.297.762 6.461 2.127 9.309-1.211 3.122-1.853 6.44-1.851 9.801l.013 17.861c.011 14.338 11.173 26.115 25.262 27.11 2.242 19.924 11.561 38.136 26.184 50.773 2.493 2.154 5.052 4.129 7.662 5.965v12.841c0 4.906-2.502 9.406-6.595 12.007-5.861.915-27.484 4.781-51.955 15.205-49.036 20.885-80.723 68.971-80.723 122.501v31.536c0 17.796 14.478 32.273 32.274 32.273h133.341v25.284c0 16.26 13.228 29.489 29.488 29.489h218.198c16.26 0 29.489-13.228 29.489-29.489v-44.417h17.595c8.514 0 15.44-6.927 15.44-15.44v-5.729h12.183c12.872 0 23.345-10.472 23.345-23.345v-123.462c-.001-14.987-12.195-27.18-27.182-27.18zm-177.92-183.443c1.716 0 3.112 1.396 3.112 3.113v13.267c0 1.716-1.396 3.113-3.112 3.113h-15.924v-9.746c0-3.309-.248-6.56-.699-9.747zm-186.321 107.002c-.104-4.068-3.431-7.311-7.5-7.311-.001 0-.003 0-.004 0l-5.056.002c-.003 0-.004 0-.006 0-6.719 0-12.189-5.465-12.194-12.185l-.012-16.299 14.415 5.019c10.169 3.539 20.843-4.03 20.826-14.823l-.033-28.793c-.041-9.834 7.788-17.868 17.457-17.91l.297-.001h.139c3.371 0 6.717.526 9.947 1.564 7.701 2.474 24.438 3.816 26.321 3.961.383.029.768.029 1.151 0 1.883-.145 18.621-1.487 26.321-3.962 3.229-1.038 6.576-1.564 9.943-1.564h.139l.305.001c9.665.042 17.495 8.076 17.453 17.932l-.033 28.768c-.017 10.782 10.643 18.374 20.826 14.826l14.37-5.003.046 21.41c.015 3.507-2.753 6.373-6.168 6.387l-5.179.022c-4.08.018-7.399 3.294-7.469 7.374-.315 18.505-8.006 35.719-21.101 47.229-12.97 11.401-28.665 18.136-46.778 18.438-17.454-.143-33.243-6.21-46.929-18.037-13.19-11.395-21.024-28.544-21.494-47.045zm68.401 80.088h.054c.038 0 .077 0 .116-.001 9.598-.149 18.753-1.783 27.425-4.85v1.968c0 7.289 2.696 14.138 7.364 19.396-10.973 8.232-24.253 12.701-38.188 12.701-13.934 0-27.214-4.469-38.188-12.701 4.668-5.257 7.364-12.106 7.364-19.395v-4.31c10.614 4.691 21.996 7.107 34.053 7.192zm-99.227 195.638v-25.951c0-4.143-3.358-7.502-7.502-7.502s-7.502 3.359-7.502 7.502v25.951h-41.826c-9.523 0-17.27-7.747-17.27-17.27v-31.536c0-47.506 28.105-90.173 71.6-108.701 20.252-8.627 38.756-12.489 46.163-13.804 14.439 12.854 32.877 19.89 52.335 19.89 19.459 0 37.896-7.035 52.335-19.89 7.411 1.316 25.914 5.179 46.163 13.804 12.5 5.324 24.021 12.86 33.973 22.129h-122.47c-16.26 0-29.488 13.228-29.488 29.488v105.889zm338.681 40.288c0 7.987-6.498 14.485-14.485 14.485h-218.197c-7.986 0-14.484-6.498-14.484-14.485v-146.177c0-7.987 6.498-14.484 14.484-14.484h218.198c7.987 0 14.485 6.498 14.485 14.484zm33.036-59.857c0 .241-.196.437-.437.437h-17.595v-27.335h17.595c.24 0 .437.196.437.437zm35.527-29.074c0 4.599-3.742 8.341-8.341 8.341h-12.183v-5.729c0-8.514-6.926-15.44-15.44-15.44h-17.595v-44.418c0-16.26-13.229-29.488-29.489-29.488h-74.983c-13.267-15.557-30.081-27.943-48.838-35.933-24.472-10.424-46.094-14.289-51.955-15.205-4.093-2.6-6.595-7.1-6.595-12.007v-9.014c4.893-2.905 9.603-6.318 14.105-10.275 14.515-12.759 23.682-31.042 25.759-50.98 10.821-.994 19.304-10.213 19.257-21.35l-.064-29.546c-.009-1.924-.274-3.811-.786-5.642.729-2.171 1.126-4.477 1.126-6.852v-16.05h15.924c9.696 0 17.614-7.663 18.072-17.248h78.774c6.715 0 12.178 5.462 12.178 12.177v141.84c0 14.988 12.193 27.181 27.18 27.181h41.716c6.715 0 12.177 5.462 12.177 12.177v123.461z"/><path d="m286.721 372.246h-49.726c-4.144 0-7.502 3.359-7.502 7.502s3.358 7.502 7.502 7.502h49.726c4.144 0 7.502-3.359 7.502-7.502s-3.358-7.502-7.502-7.502z"/><path d="m286.721 404.781h-49.726c-4.144 0-7.502 3.359-7.502 7.502s3.358 7.502 7.502 7.502h49.726c4.144 0 7.502-3.359 7.502-7.502s-3.358-7.502-7.502-7.502z"/><path d="m395.832 339.346h-182.613c-8.149 0-14.78 6.631-14.78 14.78v83.778c0 8.15 6.631 14.78 14.78 14.78h182.613c8.149 0 14.78-6.631 14.78-14.78v-38.45c0-4.143-3.358-7.502-7.502-7.502s-7.502 3.359-7.502 7.502v38.227h-182.165v-83.331h182.166v10.034c0 4.143 3.358 7.502 7.502 7.502s7.502-3.359 7.502-7.502v-10.257c-.001-8.15-6.632-14.781-14.781-14.781z"/></g></g></g></svg>